<svg xmlns="http://www.w3.org/2000/svg" width="63.73" height="63.6" viewBox="0 0 16.86 16.83"><defs><linearGradient id="a" x1="0" x2="1" y1="0" y2="0" gradientTransform="scale(477 -477) rotate(45 14.8 5.07)" gradientUnits="userSpaceOnUse" spreadMethod="pad"><stop offset="0" stop-color="#4c5db4"/><stop offset="1" stop-color="#4a41a1"/></linearGradient><clipPath id="b" clipPathUnits="userSpaceOnUse"><path d="M0 0h4319v4352H0Z"/></clipPath></defs><path fill="#fff" d="M10.2 9.87c-.52 0-.95-.48-.95-1.07 0-.59.42-1.07.95-1.07.54 0 .96.48.96 1.07 0 .59-.42 1.07-.96 1.07zm-3.52 0c-.53 0-.96-.48-.96-1.07 0-.59.42-1.07.96-1.07.53 0 .96.48.95 1.07 0 .59-.42 1.07-.95 1.07zm5.45-4.84a8.74 8.74 0 0 0-2.2-.67 5.64 5.64 0 0 0-.27.57 8.23 8.23 0 0 0-2.43 0 6.3 6.3 0 0 0-.29-.57 8.65 8.65 0 0 0-2.2.67 8.95 8.95 0 0 0-1.56 6.06 8.81 8.81 0 0 0 2.69 1.35 6.61 6.61 0 0 0 .57-.93 5.7 5.7 0 0 1-.9-.43l.22-.17a6.29 6.29 0 0 0 5.37 0l.22.17a5.69 5.69 0 0 1-.9.43c.16.33.35.64.57.93a8.76 8.76 0 0 0 2.69-1.35 8.94 8.94 0 0 0-1.58-6.06"/></svg>