<svg xmlns="http://www.w3.org/2000/svg" width="63.55" height="63.55" viewBox="0 0 16.81 16.81"><defs><linearGradient id="a" x1="0" x2="1" y1="0" y2="0" gradientTransform="scale(477 -477) rotate(45 10.2 -1.27)" gradientUnits="userSpaceOnUse" spreadMethod="pad"><stop offset="0" stop-color="#ee252c"/><stop offset="1" stop-color="#971a1f"/></linearGradient><clipPath id="b" clipPathUnits="userSpaceOnUse"/></defs><path fill="#fff" d="M9.8 8.57 7.74 9.58c-.08.05-.35-.01-.35-.1V7.39c0-.1.27-.15.35-.1l1.97 1.07c.08.04.17.16.09.2Zm2.7-1.23c0-.99-.81-1.8-1.8-1.8H6.12c-1 0-1.8.81-1.8 1.8v2.13c0 1 .8 1.8 1.8 1.8h4.58c.99 0 1.8-.8 1.8-1.8V7.34"/></svg>